# xmcd
#
# Track frame offsets:
#  150
#  18817
#  36230
#  53380
#  71757
#  86852
#  102977
#  121090
#  137640
#  153915
#  172130
#  190430
#
# Disc length: 2727 seconds
#
# Revision: 0
# Processed by: cddbd v1.5.2PL0 Copyright (c) Steve Scherf et al.
# Submitted via: Collectorz.com_Music_Collector 6.11
#
DISCID=9d0aa50c
DTITLE=Various Artist - Perfect Playlist House Volume One
DYEAR=2005
DGENRE=Dance - House
TTITLE0=Reina - Find Another Woman
TTITLE1=Kevin Aviance - Give It Up
TTITLE2=Solitaire - I Like Love (I Love Love)
TTITLE3=Katrina Ruiz - You're Gonna Miss Me
TTITLE4=Jaydee - Plastic Dreams
TTITLE5=Gaudino featuring Crystal Waters - Destination Unknown
TTITLE6=Flip Flop feat. Faith Trent - In Stereo
TTITLE7=Sherrie Lea - Anyway
TTITLE8=Silent Nick - Palladio
TTITLE9=Da Hool Feat. Heather Leigh West - Set The Stakes High
TTITLE10=Elle Patrice - Emotions
TTITLE11=Manijama feat. Mukupa and Lil' T - No No No
EXTD=
EXTT0=
EXTT1=
EXTT2=
EXTT3=
EXTT4=
EXTT5=
EXTT6=
EXTT7=
EXTT8=
EXTT9=
EXTT10=
EXTT11=
PLAYORDER=
